<svg id="visual" viewBox="0 0 900 600" width="900" height="600" xmlns="http://www.w3.org/2000/svg" xmlns:xlink="http://www.w3.org/1999/xlink" version="1.1"><rect x="0" y="0" width="900" height="600" fill="#f15c34"></rect><path d="M0 438L21.5 449C43 460 86 482 128.8 477C171.7 472 214.3 440 257.2 440.3C300 440.7 343 473.3 385.8 468.3C428.7 463.3 471.3 420.7 514.2 406C557 391.3 600 404.7 642.8 422C685.7 439.3 728.3 460.7 771.2 473.7C814 486.7 857 491.3 878.5 493.7L900 496L900 601L878.5 601C857 601 814 601 771.2 601C728.3 601 685.7 601 642.8 601C600 601 557 601 514.2 601C471.3 601 428.7 601 385.8 601C343 601 300 601 257.2 601C214.3 601 171.7 601 128.8 601C86 601 43 601 21.5 601L0 601Z" fill="#324857" stroke-linecap="round" stroke-linejoin="miter"></path></svg>